<svg width="1442" height="399" viewBox="0 0 1442 399" fill="none" xmlns="http://www.w3.org/2000/svg">
<rect y="178" width="98" height="219" fill="#C4E6FF"/>
<rect x="107" y="228" width="76" height="169" fill="#C4E6FF"/>
<rect x="577" y="277" width="55" height="121" fill="#C4E6FF"/>
<rect x="645" y="199" width="91" height="200" fill="#C4E6FF"/>
<rect x="749" y="239" width="72" height="158" fill="#C4E6FF"/>
<rect x="1237" y="115" width="129" height="283" fill="#C4E6FF"/>
<rect x="1390" y="284" width="52" height="114" fill="#C4E6FF"/>
<rect x="23" y="90" width="44" height="88" fill="#C4E6FF"/>
<rect x="126" y="160" width="34" height="68" fill="#C4E6FF"/>
<rect x="592" y="228" width="24" height="49" fill="#C4E6FF"/>
<rect x="670" y="118" width="40" height="81" fill="#C4E6FF"/>
<rect x="769" y="175" width="31" height="64" fill="#C4E6FF"/>
<rect x="1275" width="55" height="115" fill="#C4E6FF"/>
<rect x="1405" y="239" width="22" height="47" fill="#C4E6FF"/>
<rect x="6" y="246" width="84" height="143" rx="18" fill="#00A3FF"/>
<rect x="113" y="280" width="65" height="111" rx="18" fill="#0027B2"/>
<rect x="581" y="314" width="47" height="80" rx="18" fill="#00A3FF"/>
<rect x="652" y="260" width="77" height="132" rx="18" fill="#0027B2"/>
<rect x="755" y="287" width="60" height="104" rx="18" fill="#00E9E9"/>
<rect x="1248" y="201" width="107" height="186" rx="18" fill="#00A3FF"/>
<rect x="1394" y="318" width="44" height="76" rx="18" fill="#FF5D5D"/>
<rect x="246" y="110" width="287" height="287" fill="#F9FFAF"/>
<rect x="871" y="280" width="119" height="119" fill="#0027B3"/>
<rect x="1013" y="212" width="188" height="187" fill="#FF5D5D"/>
<rect x="246" y="281" width="60" height="287" transform="rotate(-90 246 281)" fill="#FF5D5D"/>
<rect x="871" y="351" width="25" height="119" transform="rotate(-90 871 351)" fill="white"/>
<rect x="1013" y="324" width="40" height="188" transform="rotate(-90 1013 324)" fill="#F9FFAF"/>
<rect x="359" y="110" width="61" height="287" fill="#FF5D5D"/>
<rect x="918" y="280" width="25" height="119" fill="white"/>
<rect x="1087" y="212" width="40" height="187" fill="#FEFFB5"/>
<rect x="401" y="34" width="76" height="76" fill="#FF5D5D"/>
<rect x="937" y="248" width="31" height="32" fill="white"/>
<rect x="1117" y="162" width="49" height="50" fill="#F9FFAF"/>
<rect x="304" y="34" width="76" height="76" fill="#FF5D5D"/>
<rect x="897" y="248" width="31" height="32" fill="white"/>
<rect x="1054" y="162" width="49" height="50" fill="#F9FFAF"/>
</svg>
