<svg width="99" height="117" viewBox="0 0 99 117" fill="none" xmlns="http://www.w3.org/2000/svg">
<rect width="9.71779" height="116.613" transform="matrix(-1 0 0 1 99 0)" fill="black"/>
<rect width="14.5767" height="14.5767" transform="matrix(-1 0 0 1 89.2822 0)" fill="black"/>
<rect width="14.5767" height="14.5767" transform="matrix(-1 0 0 1 59.5215 0)" fill="black"/>
<rect width="14.5767" height="14.5767" transform="matrix(-1 0 0 1 29.7607 0)" fill="black"/>
<rect width="15.184" height="15.184" transform="matrix(-1 0 0 1 74.7056 14.5762)" fill="black"/>
<rect width="15.184" height="15.184" transform="matrix(-1 0 0 1 44.9448 14.5762)" fill="black"/>
<rect width="15.184" height="15.184" transform="matrix(-1 0 0 1 15.1841 14.5762)" fill="black"/>
<rect width="15.184" height="14.5767" transform="matrix(-1 0 0 1 74.7056 44.3379)" fill="black"/>
<rect width="15.184" height="14.5767" transform="matrix(-1 0 0 1 44.9448 44.3379)" fill="black"/>
<rect width="15.184" height="14.5767" transform="matrix(-1 0 0 1 15.1841 44.3379)" fill="black"/>
<rect width="14.5767" height="15.184" transform="matrix(-1 0 0 1 89.2822 14.5762)" fill="white"/>
<rect width="14.5767" height="15.184" transform="matrix(-1 0 0 1 59.5215 14.5762)" fill="white"/>
<rect width="14.5767" height="15.184" transform="matrix(-1 0 0 1 29.7607 14.5762)" fill="white"/>
<rect width="15.184" height="14.5767" transform="matrix(-1 0 0 1 74.7056 0)" fill="white"/>
<rect width="15.184" height="14.5767" transform="matrix(-1 0 0 1 44.9448 0)" fill="white"/>
<rect width="15.184" height="14.5767" transform="matrix(-1 0 0 1 15.1841 0)" fill="white"/>
<rect width="15.184" height="15.184" transform="matrix(-1 0 0 1 74.7056 58.9141)" fill="white"/>
<rect width="15.184" height="15.184" transform="matrix(-1 0 0 1 44.9448 58.9141)" fill="white"/>
<rect width="15.184" height="15.184" transform="matrix(-1 0 0 1 15.1841 58.9141)" fill="white"/>
<rect width="15.184" height="14.5767" transform="matrix(-1 0 0 1 74.7056 29.7617)" fill="white"/>
<rect width="15.184" height="14.5767" transform="matrix(-1 0 0 1 44.9448 29.7617)" fill="white"/>
<rect width="15.184" height="14.5767" transform="matrix(-1 0 0 1 15.1841 29.7617)" fill="white"/>
<rect width="14.5767" height="14.5767" transform="matrix(-1 0 0 1 89.2822 44.3379)" fill="white"/>
<rect width="14.5767" height="14.5767" transform="matrix(-1 0 0 1 59.5215 44.3379)" fill="white"/>
<rect width="14.5767" height="14.5767" transform="matrix(-1 0 0 1 29.7607 44.3379)" fill="white"/>
<rect width="14.5767" height="14.5767" transform="matrix(-1 0 0 1 89.2822 29.7617)" fill="black"/>
<rect width="14.5767" height="14.5767" transform="matrix(-1 0 0 1 59.5215 29.7617)" fill="black"/>
<rect width="14.5767" height="14.5767" transform="matrix(-1 0 0 1 29.7607 29.7617)" fill="black"/>
<rect width="14.5767" height="15.184" transform="matrix(-1 0 0 1 89.2822 58.9141)" fill="black"/>
<rect width="14.5767" height="15.184" transform="matrix(-1 0 0 1 59.5215 58.9141)" fill="black"/>
<rect width="14.5767" height="15.184" transform="matrix(-1 0 0 1 29.7607 58.9141)" fill="black"/>
</svg>
