<svg width="99" height="117" viewBox="0 0 99 117" fill="none" xmlns="http://www.w3.org/2000/svg">
<rect width="9.71779" height="116.613" fill="black"/>
<rect x="9.71783" width="14.5767" height="14.5767" fill="black"/>
<rect x="39.4785" width="14.5767" height="14.5767" fill="black"/>
<rect x="69.2393" width="14.5767" height="14.5767" fill="black"/>
<rect x="24.2945" y="14.5762" width="15.184" height="15.184" fill="black"/>
<rect x="54.0552" y="14.5762" width="15.184" height="15.184" fill="black"/>
<rect x="83.816" y="14.5762" width="15.184" height="15.184" fill="black"/>
<rect x="24.2945" y="44.3379" width="15.184" height="14.5767" fill="black"/>
<rect x="54.0552" y="44.3379" width="15.184" height="14.5767" fill="black"/>
<rect x="83.816" y="44.3379" width="15.184" height="14.5767" fill="black"/>
<rect x="9.71783" y="14.5762" width="14.5767" height="15.184" fill="white"/>
<rect x="39.4785" y="14.5762" width="14.5767" height="15.184" fill="white"/>
<rect x="69.2393" y="14.5762" width="14.5767" height="15.184" fill="white"/>
<rect x="24.2945" width="15.184" height="14.5767" fill="white"/>
<rect x="54.0552" width="15.184" height="14.5767" fill="white"/>
<rect x="83.816" width="15.184" height="14.5767" fill="white"/>
<rect x="24.2945" y="58.9141" width="15.184" height="15.184" fill="white"/>
<rect x="54.0552" y="58.9141" width="15.184" height="15.184" fill="white"/>
<rect x="83.816" y="58.9141" width="15.184" height="15.184" fill="white"/>
<rect x="24.2945" y="29.7617" width="15.184" height="14.5767" fill="white"/>
<rect x="54.0552" y="29.7617" width="15.184" height="14.5767" fill="white"/>
<rect x="83.816" y="29.7617" width="15.184" height="14.5767" fill="white"/>
<rect x="9.71783" y="44.3379" width="14.5767" height="14.5767" fill="white"/>
<rect x="39.4785" y="44.3379" width="14.5767" height="14.5767" fill="white"/>
<rect x="69.2393" y="44.3379" width="14.5767" height="14.5767" fill="white"/>
<rect x="9.71783" y="29.7617" width="14.5767" height="14.5767" fill="black"/>
<rect x="39.4785" y="29.7617" width="14.5767" height="14.5767" fill="black"/>
<rect x="69.2393" y="29.7617" width="14.5767" height="14.5767" fill="black"/>
<rect x="9.71783" y="58.9141" width="14.5767" height="15.184" fill="black"/>
<rect x="39.4785" y="58.9141" width="14.5767" height="15.184" fill="black"/>
<rect x="69.2393" y="58.9141" width="14.5767" height="15.184" fill="black"/>
</svg>
