<svg width="715" height="428" viewBox="0 0 715 428" fill="none" xmlns="http://www.w3.org/2000/svg">
<path d="M3 7C8.33774 19.148 27.075 44.6587 59.3223 49.5178C91.5696 54.377 129.449 23.1973 144.358 7C141.413 50.6222 156.616 141.953 240.989 158.297C325.362 174.642 374.433 64.2426 388.421 7C387.869 73.8137 404.545 226.767 475.666 304.073C546.787 381.378 663.959 416.901 713.655 425" stroke="black" stroke-width="5"/>
<circle cx="23.9828" cy="57.8031" r="20.9828" fill="#FFFDD5"/>
<circle cx="157.61" cy="47.8617" r="20.9828" fill="#96FF85"/>
<circle cx="188.533" cy="142.838" r="20.9828" fill="#FF4848"/>
<circle cx="333.203" cy="100.871" r="20.9828" fill="#00E0FF"/>
<circle cx="416.03" cy="136.209" r="20.9828" fill="#FFFDD5"/>
<circle cx="424.865" cy="244.438" r="20.9828" fill="#FFFDD5"/>
<circle cx="297.312" cy="163.268" r="14.9088" fill="#FF4848"/>
<circle cx="90.7965" cy="32.9538" r="14.9088" fill="#FF4848"/>
<circle cx="460.757" cy="306.833" r="14.9088" fill="#96FF85"/>
<circle cx="666.168" cy="401.805" r="14.9088" fill="#FFFDD5"/>
<circle cx="529.779" cy="321.743" r="20.9828" fill="#FF4848"/>
<circle cx="571.745" cy="395.735" r="20.9828" fill="#00E0FF"/>
</svg>
