<svg width="647" height="388" viewBox="0 0 647 388" fill="none" xmlns="http://www.w3.org/2000/svg">
<path d="M644.5 7C639.667 18 622.7 41.1 593.5 45.5C564.3 49.9 530 21.6667 516.5 7C519.167 46.5 505.4 129.2 429 144C352.6 158.8 308.167 58.8333 295.5 7C296 67.5 280.9 206 216.5 276C152.1 346 46 378.167 1 385.5" stroke="black" stroke-width="5"/>
<circle r="19" transform="matrix(-1 0 0 1 625.5 53)" fill="#FFFDD5"/>
<circle r="19" transform="matrix(-1 0 0 1 504.5 44)" fill="#96FF85"/>
<circle r="19" transform="matrix(-1 0 0 1 476.5 130)" fill="#FF4848"/>
<circle r="19" transform="matrix(-1 0 0 1 345.5 92)" fill="#00E0FF"/>
<circle r="19" transform="matrix(-1 0 0 1 270.5 124)" fill="#FFFDD5"/>
<circle r="19" transform="matrix(-1 0 0 1 262.5 222)" fill="#FFFDD5"/>
<circle r="13.5" transform="matrix(-1 0 0 1 378 148.5)" fill="#FF4848"/>
<circle r="13.5" transform="matrix(-1 0 0 1 565 30.5)" fill="#FF4848"/>
<circle r="13.5" transform="matrix(-1 0 0 1 230 278.5)" fill="#96FF85"/>
<circle r="13.5" transform="matrix(-1 0 0 1 44 364.5)" fill="#FFFDD5"/>
<circle r="19" transform="matrix(-1 0 0 1 167.5 292)" fill="#FF4848"/>
<circle r="19" transform="matrix(-1 0 0 1 129.5 359)" fill="#00E0FF"/>
</svg>
