<svg width="479" height="232" viewBox="0 0 479 232" fill="none" xmlns="http://www.w3.org/2000/svg">
<rect x="1" y="56" width="478" height="176" rx="47" fill="#DC75E4"/>
<rect width="478" height="191" rx="47" fill="#FAB5FF"/>
<path d="M130.621 53.856H160.141C169.069 53.856 173.533 58.08 173.533 66.528V96.48C173.533 104.928 169.069 109.152 160.141 109.152H143.581V144H130.621V53.856ZM160.573 94.464V68.544C160.573 66.816 160.285 65.712 159.709 65.232C159.133 64.656 157.981 64.368 156.253 64.368H143.581V98.784H156.253C157.981 98.784 159.133 98.496 159.709 97.92C160.285 97.344 160.573 96.192 160.573 94.464ZM214.563 53.856H227.667V131.328C227.667 139.776 223.155 144 214.131 144H198.147C189.123 144 184.611 139.776 184.611 131.328V53.856H197.715V129.312C197.715 131.04 198.003 132.192 198.579 132.768C199.155 133.248 200.307 133.488 202.035 133.488H210.243C212.067 133.488 213.219 133.248 213.699 132.768C214.275 132.192 214.563 131.04 214.563 129.312V53.856ZM268.197 129.312V107.28C268.197 105.552 267.909 104.448 267.333 103.968C266.853 103.392 265.749 103.104 264.021 103.104H253.365C244.629 103.104 240.261 98.832 240.261 90.288V66.528C240.261 58.08 244.725 53.856 253.653 53.856H267.765C276.693 53.856 281.157 58.08 281.157 66.528V79.776H268.053V68.544C268.053 66.816 267.765 65.712 267.189 65.232C266.613 64.656 265.461 64.368 263.733 64.368H257.685C255.957 64.368 254.805 64.656 254.229 65.232C253.653 65.712 253.365 66.816 253.365 68.544V88.56C253.365 90.288 253.653 91.44 254.229 92.016C254.805 92.496 255.957 92.736 257.685 92.736H268.197C277.029 92.736 281.445 96.96 281.445 105.408V131.328C281.445 139.776 276.933 144 267.909 144H253.941C245.013 144 240.549 139.776 240.549 131.328V118.08H253.653V129.312C253.653 131.04 253.941 132.192 254.517 132.768C255.093 133.248 256.245 133.488 257.973 133.488H264.021C265.749 133.488 266.853 133.248 267.333 132.768C267.909 132.192 268.197 131.04 268.197 129.312ZM326.42 53.856H339.38V144H326.42V104.4H307.268V144H294.308V53.856H307.268V93.888H326.42V53.856Z" fill="white"/>
</svg>
