<svg width="1498" height="409" viewBox="0 0 1498 409" fill="none" xmlns="http://www.w3.org/2000/svg">
<rect y="83.9492" width="15.1107" height="83.9485" transform="rotate(-90 0 83.9492)" fill="white"/>
<rect x="94.0223" y="110.811" width="15.1107" height="83.9485" transform="rotate(-90 94.0223 110.811)" fill="white"/>
<rect x="68.8378" y="95.6992" width="15.1107" height="83.9485" fill="white"/>
<rect x="94.0223" y="120.885" width="15.1107" height="33.5794" fill="white"/>
<rect x="119.207" y="120.885" width="15.1107" height="15.1107" fill="white"/>
<rect x="119.207" y="43.6543" width="15.1107" height="15.1107" fill="white"/>
<rect x="43.6532" y="41.9727" width="15.1107" height="15.1107" fill="white"/>
<rect x="43.6532" y="122.564" width="15.1107" height="15.1107" fill="white"/>
<rect x="119.207" y="83.9492" width="15.1107" height="33.5794" transform="rotate(-90 119.207 83.9492)" fill="white"/>
<rect x="25.1845" y="110.811" width="15.1107" height="33.5794" transform="rotate(-90 25.1845 110.811)" fill="white"/>
<rect x="68.8378" y="23.5059" width="15.1107" height="33.5794" fill="white"/>
<rect x="94.0223" width="15.1107" height="83.9485" fill="white"/>
<rect x="8.50531" y="312.531" width="15.1107" height="83.9485" transform="rotate(-90 8.50531 312.531)" fill="white"/>
<rect x="102.528" y="339.393" width="15.1107" height="83.9485" transform="rotate(-90 102.528 339.393)" fill="white"/>
<rect x="77.3431" y="324.281" width="15.1107" height="83.9485" fill="white"/>
<rect x="102.528" y="349.467" width="15.1107" height="33.5794" fill="white"/>
<rect x="127.712" y="349.467" width="15.1107" height="15.1107" fill="white"/>
<rect x="127.712" y="272.236" width="15.1107" height="15.1107" fill="white"/>
<rect x="52.1585" y="270.555" width="15.1107" height="15.1107" fill="white"/>
<rect x="52.1585" y="351.146" width="15.1107" height="15.1107" fill="white"/>
<rect x="127.712" y="312.531" width="15.1107" height="33.5794" transform="rotate(-90 127.712 312.531)" fill="white"/>
<rect x="33.6898" y="339.393" width="15.1107" height="33.5794" transform="rotate(-90 33.6898 339.393)" fill="white"/>
<rect x="77.3431" y="252.088" width="15.1107" height="33.5794" fill="white"/>
<rect x="102.528" y="228.582" width="15.1107" height="83.9485" fill="white"/>
<rect x="256.844" y="83.9492" width="15.1107" height="83.9485" transform="rotate(-90 256.844 83.9492)" fill="white"/>
<rect x="350.867" y="110.811" width="15.1107" height="83.9485" transform="rotate(-90 350.867 110.811)" fill="white"/>
<rect x="325.682" y="95.6992" width="15.1107" height="83.9485" fill="white"/>
<rect x="350.867" y="120.885" width="15.1107" height="33.5794" fill="white"/>
<rect x="376.051" y="120.885" width="15.1107" height="15.1107" fill="white"/>
<rect x="376.051" y="43.6543" width="15.1107" height="15.1107" fill="white"/>
<rect x="300.497" y="41.9727" width="15.1107" height="15.1107" fill="white"/>
<rect x="300.497" y="122.564" width="15.1107" height="15.1107" fill="white"/>
<rect x="376.051" y="83.9492" width="15.1107" height="33.5794" transform="rotate(-90 376.051 83.9492)" fill="white"/>
<rect x="282.029" y="110.811" width="15.1107" height="33.5794" transform="rotate(-90 282.029 110.811)" fill="white"/>
<rect x="325.682" y="23.5059" width="15.1107" height="33.5794" fill="white"/>
<rect x="350.867" width="15.1107" height="83.9485" fill="white"/>
<rect x="265.35" y="312.531" width="15.1107" height="83.9485" transform="rotate(-90 265.35 312.531)" fill="white"/>
<rect x="359.372" y="339.393" width="15.1107" height="83.9485" transform="rotate(-90 359.372 339.393)" fill="white"/>
<rect x="334.187" y="324.281" width="15.1107" height="83.9485" fill="white"/>
<rect x="359.372" y="349.467" width="15.1107" height="33.5794" fill="white"/>
<rect x="384.557" y="349.467" width="15.1107" height="15.1107" fill="white"/>
<rect x="384.557" y="272.236" width="15.1107" height="15.1107" fill="white"/>
<rect x="309.003" y="270.555" width="15.1107" height="15.1107" fill="white"/>
<rect x="309.003" y="351.146" width="15.1107" height="15.1107" fill="white"/>
<rect x="384.557" y="312.531" width="15.1107" height="33.5794" transform="rotate(-90 384.557 312.531)" fill="white"/>
<rect x="290.534" y="339.393" width="15.1107" height="33.5794" transform="rotate(-90 290.534 339.393)" fill="white"/>
<rect x="334.187" y="252.088" width="15.1107" height="33.5794" fill="white"/>
<rect x="359.372" y="228.582" width="15.1107" height="83.9485" fill="white"/>
<rect x="520.767" y="83.9492" width="15.1107" height="83.9485" transform="rotate(-90 520.767 83.9492)" fill="white"/>
<rect x="614.789" y="110.811" width="15.1107" height="83.9485" transform="rotate(-90 614.789 110.811)" fill="white"/>
<rect x="589.605" y="95.6992" width="15.1107" height="83.9485" fill="white"/>
<rect x="614.789" y="120.885" width="15.1107" height="33.5794" fill="white"/>
<rect x="639.974" y="120.885" width="15.1107" height="15.1107" fill="white"/>
<rect x="639.974" y="43.6543" width="15.1107" height="15.1107" fill="white"/>
<rect x="564.42" y="41.9727" width="15.1107" height="15.1107" fill="white"/>
<rect x="564.42" y="122.564" width="15.1107" height="15.1107" fill="white"/>
<rect x="639.974" y="83.9492" width="15.1107" height="33.5794" transform="rotate(-90 639.974 83.9492)" fill="white"/>
<rect x="545.952" y="110.811" width="15.1107" height="33.5794" transform="rotate(-90 545.952 110.811)" fill="white"/>
<rect x="589.605" y="23.5059" width="15.1107" height="33.5794" fill="white"/>
<rect x="614.789" width="15.1107" height="83.9485" fill="white"/>
<rect x="529.272" y="312.531" width="15.1107" height="83.9485" transform="rotate(-90 529.272 312.531)" fill="white"/>
<rect x="623.295" y="339.393" width="15.1107" height="83.9485" transform="rotate(-90 623.295 339.393)" fill="white"/>
<rect x="598.11" y="324.281" width="15.1107" height="83.9485" fill="white"/>
<rect x="623.295" y="349.467" width="15.1107" height="33.5794" fill="white"/>
<rect x="648.479" y="349.467" width="15.1107" height="15.1107" fill="white"/>
<rect x="648.479" y="272.236" width="15.1107" height="15.1107" fill="white"/>
<rect x="572.926" y="270.555" width="15.1107" height="15.1107" fill="white"/>
<rect x="572.926" y="351.146" width="15.1107" height="15.1107" fill="white"/>
<rect x="648.479" y="312.531" width="15.1107" height="33.5794" transform="rotate(-90 648.479 312.531)" fill="white"/>
<rect x="554.457" y="339.393" width="15.1107" height="33.5794" transform="rotate(-90 554.457 339.393)" fill="white"/>
<rect x="598.11" y="252.088" width="15.1107" height="33.5794" fill="white"/>
<rect x="623.295" y="228.582" width="15.1107" height="83.9485" fill="white"/>
<rect x="788.734" y="83.9492" width="15.1107" height="83.9485" transform="rotate(-90 788.734 83.9492)" fill="white"/>
<rect x="882.757" y="110.811" width="15.1107" height="83.9485" transform="rotate(-90 882.757 110.811)" fill="white"/>
<rect x="857.572" y="95.6992" width="15.1107" height="83.9485" fill="white"/>
<rect x="882.757" y="120.885" width="15.1107" height="33.5794" fill="white"/>
<rect x="907.941" y="120.885" width="15.1107" height="15.1107" fill="white"/>
<rect x="907.941" y="43.6543" width="15.1107" height="15.1107" fill="white"/>
<rect x="832.388" y="41.9727" width="15.1107" height="15.1107" fill="white"/>
<rect x="832.388" y="122.564" width="15.1107" height="15.1107" fill="white"/>
<rect x="907.941" y="83.9492" width="15.1107" height="33.5794" transform="rotate(-90 907.941 83.9492)" fill="white"/>
<rect x="813.919" y="110.811" width="15.1107" height="33.5794" transform="rotate(-90 813.919 110.811)" fill="white"/>
<rect x="857.572" y="23.5059" width="15.1107" height="33.5794" fill="white"/>
<rect x="882.757" width="15.1107" height="83.9485" fill="white"/>
<rect x="797.24" y="312.531" width="15.1107" height="83.9485" transform="rotate(-90 797.24 312.531)" fill="white"/>
<rect x="891.262" y="339.393" width="15.1107" height="83.9485" transform="rotate(-90 891.262 339.393)" fill="white"/>
<rect x="866.078" y="324.281" width="15.1107" height="83.9485" fill="white"/>
<rect x="891.262" y="349.467" width="15.1107" height="33.5794" fill="white"/>
<rect x="916.447" y="349.467" width="15.1107" height="15.1107" fill="white"/>
<rect x="916.447" y="272.236" width="15.1107" height="15.1107" fill="white"/>
<rect x="840.893" y="270.555" width="15.1107" height="15.1107" fill="white"/>
<rect x="840.893" y="351.146" width="15.1107" height="15.1107" fill="white"/>
<rect x="916.447" y="312.531" width="15.1107" height="33.5794" transform="rotate(-90 916.447 312.531)" fill="white"/>
<rect x="822.424" y="339.393" width="15.1107" height="33.5794" transform="rotate(-90 822.424 339.393)" fill="white"/>
<rect x="866.078" y="252.088" width="15.1107" height="33.5794" fill="white"/>
<rect x="891.262" y="228.582" width="15.1107" height="83.9485" fill="white"/>
<rect x="1052.66" y="83.9492" width="15.1107" height="83.9485" transform="rotate(-90 1052.66 83.9492)" fill="white"/>
<rect x="1146.68" y="110.811" width="15.1107" height="83.9485" transform="rotate(-90 1146.68 110.811)" fill="white"/>
<rect x="1121.49" y="95.6992" width="15.1107" height="83.9485" fill="white"/>
<rect x="1146.68" y="120.885" width="15.1107" height="33.5794" fill="white"/>
<rect x="1171.86" y="120.885" width="15.1107" height="15.1107" fill="white"/>
<rect x="1171.86" y="43.6543" width="15.1107" height="15.1107" fill="white"/>
<rect x="1096.31" y="41.9727" width="15.1107" height="15.1107" fill="white"/>
<rect x="1096.31" y="122.564" width="15.1107" height="15.1107" fill="white"/>
<rect x="1171.86" y="83.9492" width="15.1107" height="33.5794" transform="rotate(-90 1171.86 83.9492)" fill="white"/>
<rect x="1077.84" y="110.811" width="15.1107" height="33.5794" transform="rotate(-90 1077.84 110.811)" fill="white"/>
<rect x="1121.49" y="23.5059" width="15.1107" height="33.5794" fill="white"/>
<rect x="1146.68" width="15.1107" height="83.9485" fill="white"/>
<rect x="1061.16" y="312.531" width="15.1107" height="83.9485" transform="rotate(-90 1061.16 312.531)" fill="white"/>
<rect x="1155.18" y="339.393" width="15.1107" height="83.9485" transform="rotate(-90 1155.18 339.393)" fill="white"/>
<rect x="1130" y="324.281" width="15.1107" height="83.9485" fill="white"/>
<rect x="1155.18" y="349.467" width="15.1107" height="33.5794" fill="white"/>
<rect x="1180.37" y="349.467" width="15.1107" height="15.1107" fill="white"/>
<rect x="1180.37" y="272.236" width="15.1107" height="15.1107" fill="white"/>
<rect x="1104.82" y="270.555" width="15.1107" height="15.1107" fill="white"/>
<rect x="1104.82" y="351.146" width="15.1107" height="15.1107" fill="white"/>
<rect x="1180.37" y="312.531" width="15.1107" height="33.5794" transform="rotate(-90 1180.37 312.531)" fill="white"/>
<rect x="1086.35" y="339.393" width="15.1107" height="33.5794" transform="rotate(-90 1086.35 339.393)" fill="white"/>
<rect x="1130" y="252.088" width="15.1107" height="33.5794" fill="white"/>
<rect x="1155.18" y="228.582" width="15.1107" height="83.9485" fill="white"/>
<rect x="1311.52" y="83.9492" width="15.1107" height="83.9485" transform="rotate(-90 1311.52 83.9492)" fill="white"/>
<rect x="1405.55" y="110.811" width="15.1107" height="83.9485" transform="rotate(-90 1405.55 110.811)" fill="white"/>
<rect x="1380.36" y="95.6992" width="15.1107" height="83.9485" fill="white"/>
<rect x="1405.55" y="120.885" width="15.1107" height="33.5794" fill="white"/>
<rect x="1430.73" y="120.885" width="15.1107" height="15.1107" fill="white"/>
<rect x="1430.73" y="43.6543" width="15.1107" height="15.1107" fill="white"/>
<rect x="1355.18" y="41.9727" width="15.1107" height="15.1107" fill="white"/>
<rect x="1355.18" y="122.564" width="15.1107" height="15.1107" fill="white"/>
<rect x="1430.73" y="83.9492" width="15.1107" height="33.5794" transform="rotate(-90 1430.73 83.9492)" fill="white"/>
<rect x="1336.71" y="110.811" width="15.1107" height="33.5794" transform="rotate(-90 1336.71 110.811)" fill="white"/>
<rect x="1380.36" y="23.5059" width="15.1107" height="33.5794" fill="white"/>
<rect x="1405.55" width="15.1107" height="83.9485" fill="white"/>
<rect x="1320.03" y="312.531" width="15.1107" height="83.9485" transform="rotate(-90 1320.03 312.531)" fill="white"/>
<rect x="1414.05" y="339.393" width="15.1107" height="83.9485" transform="rotate(-90 1414.05 339.393)" fill="white"/>
<rect x="1388.87" y="324.281" width="15.1107" height="83.9485" fill="white"/>
<rect x="1414.05" y="349.467" width="15.1107" height="33.5794" fill="white"/>
<rect x="1439.24" y="349.467" width="15.1107" height="15.1107" fill="white"/>
<rect x="1439.24" y="272.236" width="15.1107" height="15.1107" fill="white"/>
<rect x="1363.68" y="270.555" width="15.1107" height="15.1107" fill="white"/>
<rect x="1363.68" y="351.146" width="15.1107" height="15.1107" fill="white"/>
<rect x="1439.24" y="312.531" width="15.1107" height="33.5794" transform="rotate(-90 1439.24 312.531)" fill="white"/>
<rect x="1345.21" y="339.393" width="15.1107" height="33.5794" transform="rotate(-90 1345.21 339.393)" fill="white"/>
<rect x="1388.87" y="252.088" width="15.1107" height="33.5794" fill="white"/>
<rect x="1414.05" y="228.582" width="15.1107" height="83.9485" fill="white"/>
</svg>
