<svg width="141" height="142" viewBox="0 0 141 142" fill="none" xmlns="http://www.w3.org/2000/svg">
<rect y="66.1973" width="11.9154" height="66.1964" transform="rotate(-90 0 66.1973)" fill="white"/>
<rect x="74.14" y="87.3789" width="11.9154" height="66.1964" transform="rotate(-90 74.14 87.3789)" fill="white"/>
<rect x="54.2811" y="75.4629" width="11.9154" height="66.1964" fill="white"/>
<rect x="74.14" y="95.3223" width="11.9154" height="26.4786" fill="white"/>
<rect x="93.999" y="95.3223" width="11.9154" height="11.9154" fill="white"/>
<rect x="93.999" y="34.4219" width="11.9154" height="11.9154" fill="white"/>
<rect x="34.4221" y="33.0977" width="11.9154" height="11.9154" fill="white"/>
<rect x="34.4221" y="96.6465" width="11.9154" height="11.9154" fill="white"/>
<rect x="93.999" y="66.1973" width="11.9154" height="26.4786" transform="rotate(-90 93.999 66.1973)" fill="white"/>
<rect x="19.8589" y="87.3789" width="11.9154" height="26.4786" transform="rotate(-90 19.8589 87.3789)" fill="white"/>
<rect x="54.2811" y="18.5352" width="11.9154" height="26.4786" fill="white"/>
<rect x="74.14" width="11.9154" height="66.1964" fill="white"/>
</svg>
