<svg width="102" height="102" viewBox="0 0 102 102" fill="none" xmlns="http://www.w3.org/2000/svg">
<rect x="0.952927" y="47.6641" width="8.57947" height="47.6637" transform="rotate(-90 0.952927 47.6641)" fill="white"/>
<rect x="54.3363" y="62.916" width="8.57947" height="47.6637" transform="rotate(-90 54.3363 62.916)" fill="white"/>
<rect x="40.0371" y="54.3359" width="8.57947" height="47.6637" fill="white"/>
<rect x="54.3363" y="68.6348" width="8.57947" height="19.0655" fill="white"/>
<rect x="68.6354" y="68.6348" width="8.57947" height="8.57947" fill="white"/>
<rect x="68.6354" y="24.7852" width="8.57947" height="8.57947" fill="white"/>
<rect x="25.7381" y="23.832" width="8.57947" height="8.57947" fill="white"/>
<rect x="25.7381" y="69.5879" width="8.57947" height="8.57947" fill="white"/>
<rect x="68.6354" y="47.6641" width="8.57947" height="19.0655" transform="rotate(-90 68.6354 47.6641)" fill="white"/>
<rect x="15.252" y="62.916" width="8.57947" height="19.0655" transform="rotate(-90 15.252 62.916)" fill="white"/>
<rect x="40.0371" y="13.3477" width="8.57947" height="19.0655" fill="white"/>
<rect x="54.3363" width="8.57947" height="47.6637" fill="white"/>
</svg>
