<svg width="85" height="85" viewBox="0 0 85 85" fill="none" xmlns="http://www.w3.org/2000/svg">
<rect y="39.7188" width="7.14953" height="39.7196" transform="rotate(-90 0 39.7188)" fill="white"/>
<rect x="44.486" y="52.4297" width="7.14953" height="39.7196" transform="rotate(-90 44.486 52.4297)" fill="white"/>
<rect x="32.5701" y="45.2812" width="7.14953" height="39.7196" fill="white"/>
<rect x="44.486" y="57.1953" width="7.14953" height="15.8879" fill="white"/>
<rect x="56.4019" y="57.1953" width="7.14953" height="7.14953" fill="white"/>
<rect x="56.4019" y="20.6543" width="7.14953" height="7.14953" fill="white"/>
<rect x="20.6542" y="19.8594" width="7.14953" height="7.14953" fill="white"/>
<rect x="20.6542" y="57.9902" width="7.14953" height="7.14953" fill="white"/>
<rect x="56.4019" y="39.7188" width="7.14953" height="15.8879" transform="rotate(-90 56.4019 39.7188)" fill="white"/>
<rect x="11.9159" y="52.4297" width="7.14953" height="15.8879" transform="rotate(-90 11.9159 52.4297)" fill="white"/>
<rect x="32.5701" y="11.1211" width="7.14953" height="15.8879" fill="white"/>
<rect x="44.486" width="7.14953" height="39.7196" fill="white"/>
</svg>
